<svg id="curriculum" xmlns="http://www.w3.org/2000/svg" width="180.5" height="180" viewBox="0 0 180.5 180"><style><![CDATA[
	.st0{fill:#49A2D0;}
	.st1{fill:#E39D8E;}
	.st2{display:inline;fill:#1C8BC4;}
	.st3{fill:#B6E0F2;}
	.st4{fill:#1C8BC4;}
	.st5{fill:#EBEBEB;}
	.st6{display:inline;fill:#C5C3C4;}
	.st7{display:inline;fill:#FADBAF;}
	.st8{display:inline;fill:#FBD2A5;}
	.st9{opacity:0.1;fill:#FFFFFF;enable-background:new    ;}
	.st10{fill:#C4CCCA;}
	.st11{fill:#C5C3C4;}
	.st12{display:inline;fill:#9A7758;}
	.st13{fill:#C6E3DB;}
	.st14{fill:#FADBAF;}
	.st15{fill:#FBD2A5;}
	.st16{fill:#FBE2BF;}
	.st17{fill:#FFFFFF;}
	.st18{fill:none;}
	.st19{fill:#9A7758;}
	.st20{display:inline;}
	.st21{display:inline;fill:none;}
	.st22{fill:#6EC0AB;}
	.st23{display:inline;fill:#DDDDDD;}
	.st24{display:none;}
	.st25{fill:#A5BBB5;}
	.st26{fill:#DDDDDD;}
]]>


#medalla {
	animation: rotate 2s infinite linear;
	-webkit-animation: rotate 2s infinite linear;
	-moz-animation: rotate 2s infinite linear;
	-o-animation: rotate 2s infinite linear;
	-ms-animation: rotate 2s infinite linear;
}

@keyframes rotate {
	0% {
		-webkit-transform: rotate(0deg);
	}
	50% {
		-webkit-transform: rotate(2deg);
	}
	100% {
		-webkit-transform: rotate(0deg);
	}
}


</style>

<g id="container-tres"><circle class="st3" cx="90.5" cy="90" r="81.932"/><path class="st9" d="M8.568 90c0 45.25 36.683 81.932 81.932 81.932V8.068C45.25 8.068 8.568 44.75 8.568 90z"/></g><g id="curriculum_2_"><g id="curriculum_1_"><path class="st17" d="M52.074 41.575h77.35v98.65h-77.35z"/><path class="st10" d="M90.142 47h31.728v10.35H90.142zM59.876 85.726h62.218v10.35H59.876z"/><path class="st25" d="M90.142 60.523h31.728v3.666H90.142z"/><path class="st13" d="M90.142 67.736h31.728v3.666H90.142zM90.142 74.947h31.728v3.665H90.142zM59.848 99.237h62.024v3.666H59.848zM59.848 105.742h32.385v3.664H59.848zM59.848 112.246h32.385v3.665H59.848zM59.848 118.753h32.385v3.663H59.848zM59.848 125.256h32.385v3.664H59.848z"/><path class="st24 st20 st1" d="M80.752 106.037c.25-1.003.568-1.875.914-2.682.346-.807.717-1.542 1.126-2.268.41-.727.86-1.438 1.383-2.17.524-.734 1.124-1.49 1.87-2.27.126-.13.267-.288.453-.458.096-.09.19-.18.302-.283.11-.1.233-.203.365-.314.533-.447 1.263-1.007 2.342-1.6.47-.24.98-.507 1.555-.713.282-.12.586-.206.89-.313.31-.088.627-.188.96-.256.33-.082.67-.134 1.02-.2.352-.04.71-.094 1.072-.113.725-.05 1.484-.056 2.25.02 1.526.142 3.087.535 4.524 1.214 1.437.67 2.754 1.59 3.83 2.654 1.08 1.063 1.938 2.263 2.544 3.43.62 1.175.99 2.32 1.213 3.298.224.98.29 1.796.323 2.357.007.285.013.503.02.653-.007.147-.007.227-.007.227s0 .064-.005.19c-.004.125 0 .31-.026.55-.01.118-.022.25-.032.395-.013.145-.038.3-.056.47-.01.084-.023.17-.033.262-.02.09-.036.182-.052.276-.034.188-.063.39-.115.6-.183.838-.49 1.82-.977 2.862-.245.518-.526 1.05-.872 1.573-.163.27-.358.524-.543.792-.2.252-.398.52-.62.77-.218.255-.458.498-.697.746-.246.237-.497.48-.765.7-.535.454-1.105.888-1.722 1.26-.612.374-1.254.705-1.926.986-.67.278-1.363.498-2.063.668s-1.405.277-2.106.33c-.35.033-.702.034-1.047.044-.17 0-.344-.01-.514-.01-.17 0-.34-.013-.51-.03-1.348-.087-2.604-.388-3.69-.778-1.547-.568-2.69-1.284-3.537-1.907-.838-.642-1.396-1.185-1.76-1.572-.746-.777-1.347-1.534-1.867-2.27-.523-.728-.976-1.442-1.385-2.17-.408-.723-.78-1.462-1.126-2.27-.334-.806-.65-1.68-.902-2.68-.248 1-.37 1.97-.387 2.92-.018.953.073 1.89.282 2.833.212.945.55 1.896 1.05 2.865.5.964 1.17 1.948 2.072 2.912.44.482 1.122 1.152 2.153 1.938 1.035.772 2.437 1.655 4.34 2.354 1.346.48 2.89.85 4.544.962.207.02.416.032.626.035.21 0 .42.012.63.012.427-.013.855-.016 1.283-.056.86-.068 1.733-.197 2.596-.41.858-.21 1.715-.478 2.536-.825.824-.348 1.617-.757 2.37-1.217.754-.46 1.455-.988 2.11-1.546.33-.275.637-.57.937-.864.295-.303.585-.602.85-.915.27-.305.514-.634.763-.946.23-.325.463-.642.663-.97.427-.644.773-1.304 1.074-1.937.596-1.275.974-2.49 1.192-3.525.065-.252.102-.505.145-.736.022-.115.042-.23.06-.342.016-.107.03-.217.042-.317.025-.208.054-.4.07-.574.012-.18.024-.342.032-.49.03-.292.03-.516.033-.667l.008-.235.005-.28c-.003-.183-.013-.45-.02-.797-.04-.69-.122-1.69-.395-2.9-.27-1.2-.73-2.61-1.486-4.054-.747-1.446-1.797-2.91-3.123-4.22-1.32-1.316-2.943-2.442-4.707-3.27-1.77-.838-3.692-1.324-5.57-1.496-.94-.094-1.863-.087-2.76-.025-.45.03-.887.092-1.318.146-.426.077-.85.144-1.253.247-.41.084-.798.206-1.185.313-.375.13-.746.24-1.096.385-.705.266-1.333.582-1.912.884-1.328.73-2.22 1.425-2.875 1.973-.163.14-.31.27-.446.388-.13.128-.253.242-.366.353-.226.21-.4.403-.553.565-.904.968-1.574 1.948-2.074 2.918-.503.966-.84 1.916-1.05 2.86-.208.943-.3 1.88-.285 2.832.023.948.146 1.916.394 2.92z"/><path class="st24 st20 st1" d="M87.025 104.552c1.095 1.754 2.037 3.2 3.135 4.626.55.714 1.133 1.422 1.803 2.16.33.374.683.75 1.057 1.14.188.194.382.392.584.594.102.102.207.21.31.317.21.202.423.405.64.618.2.193.418.404 1.19 1.155.25-.096.538-.203 1.32-.502.303-.11.636-.236 1.325-.5.1-.335.2-.686.325-1.095.06-.203.114-.438.203-.662.05-.12.106-.255.17-.404.05-.127.113-.27.18-.433.07-.16.16-.335.243-.517l.267-.558c.09-.186.197-.372.29-.548.19-.357.355-.685.492-.913.136-.23.223-.373.223-.373l.19-.316c.122-.195.28-.473.475-.778.2-.3.422-.636.634-.957.217-.327.42-.644.605-.898.262-.364.506-.71.742-1.04.114-.166.232-.326.343-.483.118-.152.23-.303.342-.447.445-.577.846-1.095 1.192-1.55.73-.892 1.268-1.547 1.64-1.998.095-.113.187-.226.276-.34.095-.105.187-.216.275-.32.18-.22.358-.426.528-.632.34-.413.652-.81.955-1.2.3-.39.583-.768.867-1.13.277-.37.54-.732.792-1.1.256-.372.504-.736.74-1.11.247-.37.498-.74.74-1.12.492-.77.984-1.575 1.52-2.463-.88.533-1.69 1.032-2.462 1.53-.382.255-.76.503-1.126.764-.362.266-.72.54-1.072.82-.36.286-.71.576-1.07.883-.356.308-.72.628-1.078.983s-.724.73-1.106 1.127c-.184.2-.376.406-.575.616l-.296.326c-.097.112-.19.228-.294.345-.382.464-.95 1.137-1.707 2.064-.37.473-.782 1.012-1.252 1.613-.11.153-.235.307-.358.468-.116.165-.238.334-.365.508-.244.346-.506.71-.777 1.095-.198.264-.415.603-.645.95l-.666 1.025c-.207.325-.375.628-.505.84l-.204.342-.243.406c-.146.25-.333.61-.55.998-.1.195-.22.395-.323.604l-.3.627c-.097.202-.194.395-.275.58-.08.19-.15.36-.21.507-.05.116-.094.226-.136.322l.002-.002h.004c.002 0 .002.003.002.004v.004h-.002c-.104-.094-.205-.19-.307-.282-.206-.192-.413-.38-.61-.563-.405-.364-.792-.7-1.177-1.02-.76-.643-1.487-1.205-2.22-1.73-1.445-1.05-2.923-1.94-4.71-2.978z"/><g class="st24"><path class="st21" d="M72.248 69.616c-.103.013-.212.014-.317.02.106-.006.214-.007.318-.02z"/><path class="st21" d="M71.747 39.796c-11.138 0-20.17 9.11-20.17 20.347 0 6.8 3.316 12.8 8.395 16.497V72.594c0-1.08.885-2.2 1.975-2.502l2.004-.555 1.264-.35.375-.104 3.613-1v-.003c0-.068.006-.133.022-.198v.198h-.007.007v-3.86l-.046-.043c-.028-.024-.053-.048-.082-.072l-.06-.046-.012-.018c-.163-.144-.323-.3-.487-.465-.013-.015-.027-.025-.04-.038l-.03-.03-.01-.014c-.29-.3-.572-.634-.845-.993l-.02-.023c-.278-.367-.545-.76-.795-1.18 0-.004-.005-.01-.006-.012-.25-.422-.485-.87-.695-1.337l-.01-.01c-.21-.47-.397-.96-.553-1.47-.002 0-.002-.006-.003-.01-.18-.035-.343-.1-.484-.187-.363-.225-.597-.624-.76-1.134-.032-.095-.067-.176-.092-.28-.19-.775-.15-1.323.11-1.594.144-.15.356-.206.63-.182h.005c-.12-.96-.137-2.03-.08-2.528.432-3.662 2.498-4.978 5.067-5.436.173-.033.347-.056.525-.076.308-.036.626-.053.95-.06.116-.002.236-.004.357-.004.384 0 .758.02 1.126.06.178.02.356.045.527.076 2.6.457 4.638 1.78 5.125 5.438.063.502.046 1.577-.08 2.54.835-.13 1.132.525.83 1.767-.225.908-.645 1.5-1.422 1.616-.625 1.997-1.725 3.715-2.878 4.944l-.038.042c-.165.174-.33.325-.498.478-.013.013-.022.034-.035.046-.027.023-.054.04-.08.066-.027.022-.05.05-.076.073v3.873c.002.028.002.054.002.082l3.466.928.377.1 1.446.387 1.983.533c1.095.293 1.982 1.406 1.982 2.484v4.13c5.077-3.697 8.393-9.7 8.393-16.497.003-11.24-9.027-20.35-20.168-20.35zM74.27 68.08z"/><path class="st7" d="M61.582 77.7c.725.428 1.464.824 2.244 1.16V77.7h-2.244zM79.562 78.908c.816-.348 1.593-.762 2.35-1.21h-2.35v1.21zM71.736 69.646h.01c.064 0 .123-.007.185-.01.104-.005.213-.007.315-.02 1.152-.146 2.02-.778 2.02-1.534-.004 0-3.312-1.173-4.957-3.79l-.027-.023c-.02-.017-.04-.035-.06-.05v3.86h-.006l-.013.003c.01.864 1.14 1.563 2.536 1.563zM74.27 68.08h-.002z"/><path class="st2" d="M71.747 69.648c.17 0 .336-.01.5-.032-.102.013-.21.014-.316.02-.06.003-.12.01-.183.012zM81.542 70.025l-1.983-.533-1.448-.386-.378-.1-3.466-.93.603.163c.002.027.002.053.002.08 0 1.1-1.384 1.996-3.09 1.996l-.035-.003v10.175h-.053l.053.002c2.772 0 5.41-.565 7.815-1.584v-1.83h3.364c.205-.14.4-.293.6-.44v-4.13c0-1.075-.887-2.187-1.984-2.48z"/><path class="st8" d="M73.622 64.634c-.146.102-.282.18-.422.266-.094.055-.184.118-.273.166-.152.078-.293.13-.436.183-.067.027-.142.066-.208.085-.192.057-.373.086-.536.087v.004h-.034c-.15 0-.308-.027-.476-.068-.03-.006-.057-.01-.087-.02-.025-.005-.05-.016-.072-.022-.184-.057-.375-.135-.575-.232-.035-.016-.07-.038-.103-.056-.124-.066-.25-.14-.38-.222-.037-.026-.08-.05-.117-.076-.195-.132-.393-.273-.595-.44 1.645 2.617 4.953 3.79 4.958 3.79v-3.955c-.114.1-.23.177-.34.268-.1.08-.204.168-.304.24z"/><path class="st7" d="M69.205 68.086l.013-.005h.007v-.197c-.013.065-.022.13-.022.198v.004s.002 0 .002.002zM74.268 68.08v-.082.082zM72.493 65.25c.143-.053.284-.105.435-.184-.15.078-.292.13-.435.183zM72.283 65.334c-.192.056-.37.084-.536.087.165 0 .344-.03.536-.086zM70.024 64.807c-.04-.024-.08-.05-.12-.076.04.026.08.05.12.077zM64.293 57.14c.165.51.396.91.76 1.133-.363-.224-.595-.624-.76-1.134zM73.2 64.9c.14-.085.28-.164.422-.266-.145.102-.282.18-.422.266zM71.182 65.347c-.013-.003-.02-.002-.032-.005.03.008.057.013.09.02-.018-.006-.04-.012-.058-.015zM74.268 64.125l.074-.073c-.14.125-.277.23-.416.34.114-.09.226-.166.342-.267zM77.52 56.875c.59-2.292-.206-3.14-.98-4.215-.315-.437-.395-1.332-.648-1.803-.88-1.63-2.94-1.112-4.093-.57-.02.007-.007.012 0 .012-.007 0-.02-.006 0-.014l-.052-.02v13.368h.834c.525-.016 1.34-1.15 1.525-1.284.262-.193.598-.008.695.39.09.38-.06.91-.34 1.2.167-.153.332-.305.497-.48l.038-.04c1.155-1.23 2.256-2.948 2.877-4.945.778-.117 1.198-.71 1.422-1.615.305-1.243.006-1.896-.828-1.768-.15 1.152-.45 2.137-.95 1.783zM67.617 62.503l-.02-.022c.007.007.012.016.02.023zM65.538 58.46l.003.01-.002-.01zM68.47 63.508l.03.03c.014.013.03.023.04.038l-.08-.08c.006.002.006.008.01.012zM66.802 61.3c0-.004-.005-.01-.006-.012 0 .004.004.008.006.01zM66.1 59.95c-.004-.004-.008-.007-.008-.012.004.005.004.008.007.013zM69.178 64.175c.018.013.03.03.046.042.02.018.038.035.06.05-.036-.027-.073-.06-.106-.092zM64.94 55.084c-.27-.026-.48.033-.626.182.144-.15.357-.208.627-.182z"/><path class="st6" d="M66.092 59.938c-.21-.47-.396-.958-.552-1.468.156.51.343 1 .552 1.468zM69.098 64.104c.028.025.054.05.08.072l-.045-.044c-.013-.01-.023-.02-.035-.028zM65.054 58.273c.14.09.303.152.484.188-.182-.035-.343-.097-.484-.187zM64.947 55.084h-.006.007zM68.54 63.576c.163.165.323.32.486.465-.01-.008-.02-.024-.033-.036-.15-.138-.302-.274-.454-.428zM64.314 55.264c-.26.27-.303.82-.113 1.595.028.102.064.185.095.277-.03-.094-.067-.177-.094-.278-.19-.776-.145-1.324.114-1.596zM68.46 63.495c-.288-.303-.57-.632-.843-.993.273.358.556.692.842.993zM67.597 62.48c-.276-.368-.543-.762-.795-1.182.252.42.515.814.795 1.18zM66.795 61.288c-.25-.422-.487-.87-.696-1.337.21.467.445.915.695 1.338z"/><path class="st7" d="M69.31 64.292c.085.07.17.125.26.19-.145-.11-.292-.22-.438-.348.016.012.032.03.044.043.035.03.07.065.105.094.014.006.022.016.03.022z"/><path class="st6" d="M69.31 64.292c.085.07.17.125.26.19-.145-.11-.292-.22-.438-.348.016.012.032.03.044.043.035.03.07.065.105.094.014.006.022.016.03.022z"/><path class="st8" d="M70.94 65.26c-.135-.048-.272-.098-.415-.167-.004-.003-.01-.004-.02-.008.198.1.39.175.575.232-.044-.01-.095-.038-.14-.057z"/><path class="st6" d="M70.94 65.26c-.135-.048-.272-.098-.415-.167-.004-.003-.01-.004-.02-.008.198.1.39.175.575.232-.044-.01-.095-.038-.14-.057z"/><path class="st8" d="M71.715 65.427c-.15 0-.308-.027-.476-.068.166.04.326.067.475.067z"/><path class="st6" d="M71.715 65.427c-.15 0-.308-.027-.476-.068.166.04.326.067.475.067z"/><path class="st8" d="M69.86 64.697c-.096-.065-.194-.143-.29-.217-.088-.065-.174-.12-.26-.19.202.167.4.308.595.44-.014-.01-.03-.023-.046-.033z"/><path class="st6" d="M69.86 64.697c-.096-.065-.194-.143-.29-.217-.088-.065-.174-.12-.26-.19.202.167.4.308.595.44-.014-.01-.03-.023-.046-.033z"/><path class="st8" d="M71.747 65.42c-.01.002-.025.007-.035.007h.035v-.006z"/><path class="st6" d="M71.747 65.42c-.01.002-.025.007-.035.007h.035v-.006z"/><path class="st8" d="M70.403 65.03c-.046-.026-.1-.062-.146-.09-.08-.043-.154-.08-.233-.133.13.083.257.156.38.222z"/><path class="st6" d="M70.403 65.03c-.046-.026-.1-.062-.146-.09-.08-.043-.154-.08-.233-.133.13.083.257.156.38.222z"/><path class="st7" d="M68.646 62.804c.003-.02.01-.042.018-.065.1-.402.485-.59.782-.398.21.135 1.03 1.274 1.54 1.29h.762v-13.37c-1.54-.668-2.7-.605-3.49-.312-.39.236-.68.56-.824.998-.146.45-.278 1.376-.568 1.76-.736.985-1.528 2.02-.982 4.17-.5.355-.79-.64-.936-1.795h-.006c-.273-.026-.486.032-.628.182-.26.27-.305.82-.11 1.595.025.1.06.186.09.278.166.508.397.91.76 1.134.142.09.304.152.485.188.002 0 .002.005.002.01.155.507.343.998.552 1.468l.01.012c.21.468.443.916.695 1.337 0 .003.004.008.006.01.25.42.517.814.796 1.182.004.007.01.014.02.022.27.36.554.69.843.993l.08.08c.15.155.304.29.453.428-.28-.29-.446-.817-.352-1.2z"/><path class="st6" d="M68.646 62.804c.003-.02.01-.042.018-.065.1-.402.485-.59.782-.398.21.135 1.03 1.274 1.54 1.29h.762v-13.37c-1.54-.668-2.7-.605-3.49-.312-.39.236-.68.56-.824.998-.146.45-.278 1.376-.568 1.76-.736.985-1.528 2.02-.982 4.17-.5.355-.79-.64-.936-1.795h-.006c-.273-.026-.486.032-.628.182-.26.27-.305.82-.11 1.595.025.1.06.186.09.278.166.508.397.91.76 1.134.142.09.304.152.485.188.002 0 .002.005.002.01.155.507.343.998.552 1.468l.01.012c.21.468.443.916.695 1.337 0 .003.004.008.006.01.25.42.517.814.796 1.182.004.007.01.014.02.022.27.36.554.69.843.993l.08.08c.15.155.304.29.453.428-.28-.29-.446-.817-.352-1.2z"/><path class="st7" d="M71.715 65.427c-.167 0-.346-.034-.533-.083l.058.015c.166.04.326.067.475.067z"/><path class="st6" d="M71.715 65.427c-.167 0-.346-.034-.533-.083l.058.015c.166.04.326.067.475.067z"/><path class="st7" d="M71.747 65.42c-.01 0-.025.007-.035.007.01 0 .025-.004.035-.006z"/><path class="st6" d="M71.747 65.42c-.01 0-.025.007-.035.007.01 0 .025-.004.035-.006z"/><path class="st7" d="M70.024 64.807c.08.053.154.09.233.133-.13-.075-.262-.15-.398-.243.015.01.03.023.045.034.04.026.08.053.12.077z"/><path class="st6" d="M70.024 64.807c.08.053.154.09.233.133-.13-.075-.262-.15-.398-.243.015.01.03.023.045.034.04.026.08.053.12.077z"/><path class="st7" d="M70.525 65.093c.143.07.28.12.415.167-.135-.047-.272-.096-.415-.167z"/><path class="st6" d="M70.525 65.093c.143.07.28.12.415.167-.135-.047-.272-.096-.415-.167z"/><path class="st12" d="M65.886 56.877c-.55-2.148.243-3.183.98-4.167.29-.387.422-1.313.568-1.76.143-.44.435-.762.82-.998.794-.29 1.956-.356 3.493.313.018.008.034.014.052.02 1.15-.54 3.21-1.06 4.09.572.255.473.334 1.367.648 1.803.775 1.076 1.57 1.924.982 4.215.5.355.8-.632.95-1.783.123-.963.142-2.04.075-2.54-.487-3.654-2.524-4.978-5.12-5.437-.174-.03-.354-.056-.53-.076-.37-.042-.742-.06-1.124-.06-.12 0-.24 0-.357.004-.324.005-.64.023-.95.06-.177.02-.353.044-.526.075-2.566.456-4.634 1.773-5.067 5.435-.057.498-.038 1.566.08 2.528.143 1.156.437 2.152.936 1.794z"/><path class="st21" d="M71.798 50.3c-.006 0-.02-.006 0-.014"/><path class="st12" d="M69.57 64.48c.096.073.194.15.29.217.135.092.267.168.397.243.046.028.1.063.146.09.033.017.07.04.103.055l.02.008c.142.07.278.12.414.167.045.017.096.044.14.057.023.006.048.017.072.023.01 0 .02 0 .03.004.187.05.368.083.533.083.01 0 .024-.006.033-.006.167-.002.344-.03.536-.086.067-.02.14-.06.21-.087.142-.052.283-.104.436-.183.09-.048.18-.11.273-.166.14-.085.276-.164.422-.267.1-.07.203-.158.305-.238.14-.11.276-.216.416-.34.028-.026.054-.043.083-.068.013-.013.02-.033.032-.046.28-.29.433-.82.34-1.2-.094-.398-.43-.582-.694-.39-.184.136-.998 1.27-1.523 1.285H70.99c-.512-.016-1.332-1.155-1.543-1.29-.3-.193-.684-.005-.784.396-.003.022-.013.043-.016.064-.094.38.073.91.35 1.2.012.01.02.027.032.036.004.006.007.012.012.017.02.017.04.03.06.046l.034.03c.142.127.29.237.433.347z"/><path class="st2" d="M61.58 77.695h2.248v.003H61.58z"/><path class="st23" d="M61.58 77.695h2.248v.003H61.58z"/><path class="st2" d="M79.562 77.7h2.35c.343-.203.687-.4 1.014-.622h-3.364v.62z"/><path class="st23" d="M79.562 77.7h2.35c.343-.203.687-.4 1.014-.622h-3.364v.62zM72.248 69.616c1.152-.146 2.02-.778 2.02-1.537.002.756-.868 1.39-2.02 1.536z"/><path class="st7" d="M74.27 68.08c-.003.757-.87 1.39-2.02 1.535 1.15-.145 2.02-.78 2.02-1.535z"/><path class="st23" d="M74.27 68.08c-.003.757-.87 1.39-2.02 1.535 1.15-.145 2.02-.78 2.02-1.535z"/><path class="st2" d="M72.248 69.616c-.165.02-.33.03-.5.032v.667c.012 0 .024.003.034.003 1.71 0 3.09-.894 3.09-1.997v-.08l-.604-.16c.002.756-.868 1.39-2.02 1.536z"/><path class="st23" d="M72.248 69.616c-.165.02-.33.03-.5.032v.667c.012 0 .024.003.034.003 1.71 0 3.09-.894 3.09-1.997v-.08l-.604-.16c.002.756-.868 1.39-2.02 1.536z"/><path class="st8" d="M74.268 68.08v.003z"/><path class="st23" d="M74.268 68.08v.003z"/><path class="st6" d="M71.736 69.648c-1.396 0-2.527-.7-2.534-1.563.006.863 1.138 1.563 2.534 1.563z"/><path class="st6" d="M61.947 70.094l2.004-.556 1.264-.348.375-.104 3.105-.86.505-.14h.003v-.003l-3.614 1-.376.104-1.263.35-2.003.557c-1.09.3-1.975 1.42-1.975 2.5v.002c0-1.08.885-2.2 1.975-2.502z"/><path class="st2" d="M71.733 69.648h.014-.01c-1.397 0-2.528-.7-2.535-1.563H69.2c.008.863 1.138 1.563 2.533 1.563z"/><path class="st6" d="M71.733 69.648h.014-.01c-1.397 0-2.528-.7-2.535-1.563H69.2c.008.863 1.138 1.563 2.533 1.563z"/><path class="st2" d="M71.747 70.315c-1.688-.014-3.053-.9-3.053-1.994 0-.03 0-.062.002-.095l-3.106.86-.376.105-1.26.348-2.004.556c-1.09.304-1.976 1.42-1.976 2.502v4.044c.198.146.394.298.598.438h3.256v1.778c2.415 1.044 5.074 1.624 7.87 1.632h.05V70.315z"/><path class="st6" d="M71.747 70.315c-1.688-.014-3.053-.9-3.053-1.994 0-.03 0-.062.002-.095l-3.106.86-.376.105-1.26.348-2.004.556c-1.09.304-1.976 1.42-1.976 2.502v4.044c.198.146.394.298.598.438h3.256v1.778c2.415 1.044 5.074 1.624 7.87 1.632h.05V70.315z"/><path class="st7" d="M69.202 68.086c.006.862 1.138 1.563 2.535 1.563h.01v-.002h-.01c-1.395 0-2.526-.7-2.532-1.56l-.003-.002z"/><path class="st6" d="M69.202 68.086c.006.862 1.138 1.563 2.535 1.563h.01v-.002h-.01c-1.395 0-2.526-.7-2.532-1.56l-.003-.002z"/><path class="st2" d="M63.826 77.078H60.57c.325.22.668.418 1.01.618h2.246v-.618z"/><path class="st23" d="M63.826 77.078H60.57c.325.22.668.418 1.01.618h2.246v-.618z"/><path class="st6" d="M63.826 77.078H60.57c.325.22.668.418 1.01.618h2.246v-.618z"/><path class="st23" d="M68.698 68.227l.504-.14z"/><path class="st6" d="M68.698 68.227l.504-.14z"/><path class="st2" d="M71.733 69.648c-1.395 0-2.528-.7-2.534-1.56l-.506.137v.096c0 1.094 1.363 1.98 3.05 1.995v-.667h-.01z"/><path class="st23" d="M71.733 69.648c-1.395 0-2.528-.7-2.534-1.56l-.506.137v.096c0 1.094 1.363 1.98 3.05 1.995v-.667h-.01z"/><path class="st6" d="M71.733 69.648c-1.395 0-2.528-.7-2.534-1.56l-.506.137v.096c0 1.094 1.363 1.98 3.05 1.995v-.667h-.01z"/></g><path class="st18" d="M72.25 69.582c-.1.01-.205.014-.313.02.108-.006.215-.007.314-.02z"/><path class="st18" d="M71.757 39.773c-11.135 0-20.164 9.107-20.164 20.342 0 6.796 3.316 12.795 8.39 16.49V72.56c0-1.08.883-2.197 1.975-2.5l2.004-.557 1.26-.348.377-.104 3.61-.998v-.005c0-.068.007-.13.022-.198v.197l-.005.002.005-.003V64.19c-.015-.013-.03-.03-.046-.043-.03-.024-.054-.046-.08-.07l-.058-.047c-.006-.003-.008-.01-.013-.015-.164-.146-.325-.3-.487-.466-.012-.016-.025-.026-.038-.037-.01-.012-.02-.02-.028-.033-.006-.003-.01-.01-.013-.012-.287-.3-.57-.633-.845-.99-.004-.01-.01-.017-.018-.027-.277-.364-.542-.757-.795-1.178l-.007-.014c-.25-.42-.485-.868-.697-1.336l-.003-.012c-.213-.47-.4-.958-.556-1.466v-.01c-.185-.036-.344-.1-.483-.19-.362-.22-.597-.62-.762-1.132-.028-.094-.068-.178-.092-.28-.19-.772-.15-1.324.114-1.594.143-.147.355-.206.625-.182h.006c-.12-.96-.136-2.03-.076-2.526.43-3.662 2.494-4.978 5.064-5.434.17-.033.346-.057.524-.077.31-.037.625-.054.947-.06.12-.005.237-.007.357-.007.383 0 .76.02 1.126.063.177.02.355.046.53.075 2.6.458 4.632 1.78 5.12 5.436.065.5.045 1.577-.075 2.54.832-.128 1.13.526.822 1.765-.222.908-.643 1.5-1.418 1.616-.626 1.997-1.724 3.716-2.878 4.94-.01.014-.03.03-.038.042-.167.172-.33.324-.5.476-.01.017-.02.034-.034.047-.027.025-.052.042-.08.068-.024.02-.05.048-.075.072v3.87c.003.03.003.055.003.083l3.465.927.376.1 1.444.387 1.983.532c1.095.29 1.98 1.402 1.98 2.48v4.13c5.074-3.694 8.39-9.694 8.39-16.49 0-11.23-9.026-20.337-20.16-20.337zM74.276 68.047z"/><path class="st14" d="M61.595 77.663c.722.427 1.464.823 2.24 1.158v-1.157h-2.24zM79.565 78.872c.815-.347 1.593-.764 2.348-1.21h-2.348v1.21zM71.744 69.613h.013c.063 0 .12-.008.18-.01.11-.005.215-.01.318-.02 1.148-.146 2.018-.778 2.018-1.532-.003 0-3.31-1.174-4.953-3.79-.01-.006-.018-.016-.026-.02-.02-.018-.04-.033-.062-.05v3.858l-.005.002-.016.003c.008.86 1.14 1.56 2.534 1.56zM74.276 68.047h-.003z"/><path class="st4" d="M71.757 69.614c.17 0 .336-.01.495-.03-.1.014-.206.016-.314.02-.063 0-.12.01-.18.01zM81.545 69.993l-1.98-.53-1.447-.387-.378-.1-3.464-.928.603.164c.002.024.002.054.002.08 0 1.1-1.384 1.995-3.09 1.995h-.036v10.168H71.7c.02 0 .036.003.057.003 2.77 0 5.407-.565 7.81-1.583v-1.83h3.364c.206-.14.4-.292.6-.438V72.48c0-1.083-.888-2.195-1.985-2.487z"/><path class="st15" d="M73.63 64.6c-.145.104-.28.183-.42.27-.093.054-.186.116-.273.165-.15.08-.292.13-.435.182-.068.028-.143.068-.21.088-.19.055-.37.084-.535.087v.004h-.035c-.15 0-.308-.027-.476-.066-.03-.006-.057-.01-.085-.02-.024-.006-.047-.016-.072-.022-.18-.057-.375-.135-.57-.232-.036-.018-.07-.038-.105-.058-.124-.063-.25-.137-.38-.22l-.116-.076c-.198-.133-.394-.274-.593-.44 1.642 2.614 4.948 3.787 4.955 3.79v-3.954c-.116.1-.228.177-.34.265-.108.077-.21.167-.31.238z"/><path class="st14" d="M69.21 68.055l.017-.004h.005v-.2c-.015.067-.02.13-.02.2v.004zM74.273 68.047c.003-.028 0-.052 0-.08v.08zM72.5 65.216c.142-.054.284-.104.433-.183-.15.08-.29.13-.433.183zM72.29 65.305c-.19.055-.37.083-.535.085.163-.003.344-.032.535-.085zM70.03 64.778l-.117-.078c.04.025.08.052.118.078zM64.305 57.113c.164.51.4.91.758 1.132-.358-.224-.595-.623-.758-1.132zM73.207 64.87c.14-.084.276-.166.422-.27-.144.104-.284.186-.423.27zM71.192 65.314c-.013 0-.022 0-.032-.003.028.01.057.014.085.022-.015-.008-.036-.015-.053-.018zM74.273 64.096c.025-.023.05-.05.076-.07-.14.122-.28.23-.418.336.115-.09.226-.166.34-.266zM77.525 56.848c.59-2.292-.203-3.14-.98-4.213-.316-.437-.395-1.332-.647-1.803-.88-1.63-2.94-1.11-4.09-.57-.02.01-.01.015 0 .015-.01 0-.02-.004 0-.015l-.052-.02v13.363h.833c.522-.015 1.336-1.15 1.52-1.28.267-.196.598-.01.696.387.092.376-.063.91-.34 1.2.166-.152.332-.305.496-.477.013-.01.028-.027.042-.04 1.153-1.23 2.253-2.946 2.877-4.943.777-.115 1.196-.71 1.42-1.615.304-1.24.01-1.895-.823-1.767-.152 1.144-.45 2.132-.952 1.778zM67.625 62.474c-.004-.008-.01-.016-.018-.024.007.006.014.016.018.024zM65.547 58.433l.003.01v-.01zM68.482 63.477c.01.01.018.02.028.033.013.01.026.02.038.035-.025-.028-.054-.052-.08-.08.005.003.008.01.014.012zM66.813 61.27c0-.004-.004-.01-.007-.014.002.005.004.01.007.013zM66.108 59.924c0-.006-.003-.012-.003-.015 0 .002.003.007.003.014zM69.187 64.146c.016.014.03.03.046.043l.062.05c-.037-.03-.07-.067-.108-.094zM64.95 55.056c-.27-.026-.482.034-.625.182.143-.148.356-.208.625-.182z"/><path class="st11" d="M66.102 59.91c-.21-.47-.396-.96-.552-1.467.156.508.343.998.552 1.466zM69.105 64.073c.027.025.056.05.08.07-.015-.013-.03-.03-.043-.042-.013-.008-.024-.017-.037-.027zM65.064 58.245c.143.088.3.153.482.19-.18-.04-.34-.102-.482-.19zM64.96 55.056h-.007.006zM68.548 63.545c.162.166.324.32.487.466-.01-.01-.02-.024-.03-.037-.153-.136-.304-.274-.457-.428zM64.325 55.238c-.26.27-.303.82-.114 1.594.028.104.064.186.095.28-.034-.096-.068-.176-.094-.28-.188-.775-.145-1.324.115-1.594zM68.47 63.465c-.29-.302-.572-.63-.847-.99.275.358.557.688.846.99zM67.607 62.45c-.277-.367-.542-.76-.795-1.18.25.42.518.813.795 1.18zM66.805 61.256c-.25-.42-.485-.87-.697-1.333.212.468.448.914.697 1.333z"/><path class="st14" d="M69.32 64.26h-.002c.087.07.17.127.26.19-.144-.11-.29-.22-.436-.348.016.014.03.03.044.043.035.03.07.065.104.093.014.007.022.017.03.022z"/><path class="st11" d="M69.32 64.26h-.002c.087.07.17.127.26.19-.144-.11-.29-.22-.436-.348.016.014.03.03.044.043.035.03.07.065.104.093.014.007.022.017.03.022z"/><path class="st15" d="M70.946 65.23c-.135-.048-.27-.098-.41-.168-.008-.004-.014-.005-.022-.01.198.1.39.175.57.234-.042-.013-.09-.04-.138-.057z"/><path class="st11" d="M70.946 65.23c-.135-.048-.27-.098-.41-.168-.008-.004-.014-.005-.022-.01.198.1.39.175.57.234-.042-.013-.09-.04-.138-.057z"/><path class="st15" d="M71.718 65.396c-.146 0-.306-.027-.473-.066.17.04.327.066.473.066z"/><path class="st11" d="M71.718 65.396c-.146 0-.306-.027-.473-.066.17.04.327.066.473.066z"/><path class="st15" d="M69.87 64.667c-.098-.068-.195-.143-.293-.218-.09-.064-.17-.12-.26-.192h.003c.2.167.396.31.593.44-.016-.01-.03-.022-.044-.03z"/><path class="st11" d="M69.87 64.667c-.098-.068-.195-.143-.293-.218-.09-.064-.17-.12-.26-.192h.003c.2.167.396.31.593.44-.016-.01-.03-.022-.044-.03z"/><path class="st15" d="M71.757 65.39c-.01 0-.024.005-.035.005h.035v-.005z"/><path class="st11" d="M71.757 65.39c-.01 0-.024.005-.035.005h.035v-.005z"/><path class="st15" d="M70.41 64.998c-.047-.023-.096-.06-.143-.088-.078-.044-.154-.08-.236-.133.13.083.258.156.38.22z"/><path class="st11" d="M70.41 64.998c-.047-.023-.096-.06-.143-.088-.078-.044-.154-.08-.236-.133.13.083.258.156.38.22z"/><path class="st14" d="M68.657 62.775c.003-.02.01-.042.016-.065.098-.402.482-.588.782-.395.21.135 1.033 1.274 1.542 1.288h.762V50.24c-1.54-.668-2.7-.605-3.493-.313-.387.237-.676.56-.822.998-.146.45-.28 1.375-.568 1.76-.736.985-1.526 2.022-.98 4.167-.5.357-.792-.64-.937-1.793h-.006c-.272-.026-.485.033-.628.18-.26.272-.303.82-.114 1.594.027.104.063.187.094.28.164.51.398.91.758 1.132.14.088.303.15.484.188v.01c.155.506.343 1 .552 1.466.003.003.003.01.006.015.21.467.442.913.695 1.333l.01.013c.248.42.515.813.79 1.182.008.007.015.017.022.024.273.36.555.69.842.99l.083.08c.15.155.3.293.454.43-.274-.29-.438-.823-.343-1.2z"/><path class="st16" d="M68.657 62.775c.003-.02.01-.042.016-.065.098-.402.482-.588.782-.395.21.135 1.033 1.274 1.542 1.288h.762V50.24c-1.54-.668-2.7-.605-3.493-.313-.387.237-.676.56-.822.998-.146.45-.28 1.375-.568 1.76-.736.985-1.526 2.022-.98 4.167-.5.357-.792-.64-.937-1.793h-.006c-.272-.026-.485.033-.628.18-.26.272-.303.82-.114 1.594.027.104.063.187.094.28.164.51.398.91.758 1.132.14.088.303.15.484.188v.01c.155.506.343 1 .552 1.466.003.003.003.01.006.015.21.467.442.913.695 1.333l.01.013c.248.42.515.813.79 1.182.008.007.015.017.022.024.273.36.555.69.842.99l.083.08c.15.155.3.293.454.43-.274-.29-.438-.823-.343-1.2z"/><path class="st14" d="M71.718 65.396c-.163 0-.342-.032-.53-.083l.057.016c.17.04.327.066.473.066z"/><path class="st11" d="M71.718 65.396c-.163 0-.342-.032-.53-.083l.057.016c.17.04.327.066.473.066z"/><path class="st14" d="M71.757 65.39c-.01 0-.024.005-.035.005.01 0 .022-.005.035-.005z"/><path class="st11" d="M71.757 65.39c-.01 0-.024.005-.035.005.01 0 .022-.005.035-.005z"/><path class="st14" d="M70.03 64.778c.08.05.158.088.235.132-.132-.073-.264-.153-.396-.242.015.01.027.022.045.034.04.023.077.05.116.076z"/><path class="st11" d="M70.03 64.778c.08.05.158.088.235.132-.132-.073-.264-.153-.396-.242.015.01.027.022.045.034.04.023.077.05.116.076z"/><path class="st14" d="M70.535 65.063c.14.07.276.12.41.167-.134-.048-.27-.098-.41-.167z"/><path class="st11" d="M70.535 65.063c.14.07.276.12.41.167-.134-.048-.27-.098-.41-.167z"/><path class="st19" d="M65.896 56.85c-.55-2.146.244-3.18.98-4.164.29-.386.42-1.313.568-1.76.143-.44.435-.763.822-1 .792-.29 1.955-.355 3.492.313l.052.02c1.15-.542 3.208-1.06 4.09.568.252.473.332 1.367.647 1.805.774 1.072 1.57 1.922.98 4.21.5.355.8-.63.95-1.78.12-.963.14-2.037.075-2.54-.49-3.655-2.524-4.976-5.12-5.434-.172-.03-.354-.056-.53-.076-.366-.042-.744-.063-1.127-.063-.12 0-.24.002-.357.007-.322.006-.64.023-.947.06-.177.02-.35.044-.523.076-2.57.456-4.634 1.772-5.064 5.434-.06.496-.042 1.564.076 2.527.144 1.157.437 2.153.936 1.796z"/><path class="st18" d="M71.807 50.275c-.01 0-.02-.004 0-.015"/><path class="st19" d="M69.577 64.45c.098.074.197.15.292.218.134.09.266.17.395.242.05.027.098.065.145.088.033.02.068.04.105.058l.02.01c.142.067.277.12.412.166.046.018.097.044.14.06.024.005.05.016.07.02.014.003.02 0 .033.005.188.048.367.083.53.083.013 0 .025-.005.037-.005.164-.005.343-.03.535-.09.068-.02.142-.058.21-.087.143-.054.285-.104.434-.182.09-.047.183-.11.273-.166.14-.083.278-.166.42-.268.103-.07.204-.16.306-.237.14-.112.276-.22.416-.34.028-.027.054-.045.08-.07.015-.012.024-.03.036-.046.278-.29.433-.823.34-1.2-.098-.398-.43-.583-.696-.39-.183.133-.996 1.27-1.52 1.283h-1.596c-.51-.015-1.33-1.155-1.542-1.288-.3-.192-.682-.003-.782.396l-.017.066c-.094.38.07.91.35 1.2.01.01.02.026.03.036.004.005.007.012.014.017.016.02.036.03.056.046l.037.028c.145.126.29.235.434.346z"/><path class="st4" d="M61.593 77.66h2.246v.005h-2.247z"/><path class="st26" d="M61.593 77.66h2.246v.005h-2.247z"/><path class="st4" d="M79.565 77.663h2.348c.343-.202.688-.4 1.015-.62h-3.363v.62z"/><path class="st26" d="M79.565 77.663h2.348c.343-.202.688-.4 1.015-.62h-3.363v.62zM72.25 69.582c1.156-.148 2.026-.778 2.026-1.537 0 .76-.87 1.39-2.025 1.537z"/><path class="st14" d="M74.276 68.047v.005c-.003.752-.87 1.384-2.02 1.532 1.15-.148 2.02-.78 2.02-1.537z"/><path class="st26" d="M74.276 68.047v.005c-.003.752-.87 1.384-2.02 1.532 1.15-.148 2.02-.78 2.02-1.537z"/><path class="st4" d="M72.25 69.582c-.158.02-.326.03-.494.03v.67l.038.002c1.707 0 3.087-.894 3.087-1.997v-.08l-.602-.162c-.002.76-.872 1.39-2.027 1.537z"/><path class="st26" d="M72.25 69.582c-.158.02-.326.03-.494.03v.67l.038.002c1.707 0 3.087-.894 3.087-1.997v-.08l-.602-.162c-.002.76-.872 1.39-2.027 1.537z"/><path class="st15" d="M74.273 68.047v.005z"/><path class="st26" d="M74.273 68.047v.005z"/><path class="st11" d="M71.744 69.614c-1.396 0-2.526-.697-2.53-1.56.004.862 1.134 1.56 2.53 1.56zM61.958 70.06l2.004-.554 1.26-.348.377-.106 3.105-.857.503-.14v.002l.003-.002-3.61.998-.377.104-1.26.346-2.005.557c-1.088.302-1.976 1.42-1.976 2.5v.003c0-1.082.888-2.2 1.976-2.503z"/><path class="st4" d="M71.74 69.616l.017-.002h-.013c-1.393 0-2.526-.697-2.53-1.56h-.002c.003.862 1.136 1.562 2.53 1.562z"/><path class="st11" d="M71.74 69.616l.017-.002h-.013c-1.393 0-2.526-.697-2.53-1.56h-.002c.003.862 1.136 1.562 2.53 1.562z"/><path class="st4" d="M71.757 70.282c-1.69-.013-3.053-.9-3.053-1.993 0-.034 0-.066.003-.097l-3.106.857-.374.104-1.262.348-2.003.556c-1.09.302-1.976 1.42-1.976 2.5V76.6c.2.146.393.3.598.438h3.254v1.779c2.415 1.04 5.072 1.625 7.863 1.63h.056V70.283z"/><path class="st0" d="M71.757 70.282c-1.69-.013-3.053-.9-3.053-1.993 0-.034 0-.066.003-.097l-3.106.857-.374.104-1.262.348-2.003.556c-1.09.302-1.976 1.42-1.976 2.5V76.6c.2.146.393.3.598.438h3.254v1.779c2.415 1.04 5.072 1.625 7.863 1.63h.056V70.283z"/><path class="st14" d="M69.21 68.055c.007.862 1.137 1.56 2.532 1.56h.013-.013c-1.39-.002-2.524-.7-2.53-1.56v-.003.003z"/><path class="st11" d="M69.21 68.055c.007.862 1.137 1.56 2.532 1.56h.013-.013c-1.39-.002-2.524-.7-2.53-1.56v-.003.003z"/><path class="st4" d="M63.836 77.04h-3.254c.327.22.67.42 1.01.62h2.244v-.62z"/><path class="st26" d="M63.836 77.04h-3.254c.327.22.67.42 1.01.62h2.244v-.62z"/><path class="st5" d="M63.836 77.04h-3.254c.327.22.67.42 1.01.62h2.244v-.62z"/><path class="st26" d="M68.704 68.193l.504-.14z"/><path class="st11" d="M68.704 68.193l.504-.14z"/><path class="st4" d="M71.74 69.616c-1.392 0-2.525-.7-2.53-1.562l-.502.14c-.003.03-.003.062-.003.096 0 1.09 1.364 1.98 3.053 1.994v-.67l-.017.002z"/><path class="st26" d="M71.74 69.616c-1.392 0-2.525-.7-2.53-1.562l-.502.14c-.003.03-.003.062-.003.096 0 1.09 1.364 1.98 3.053 1.994v-.67l-.017.002z"/><path class="st5" d="M71.74 69.616c-1.392 0-2.525-.7-2.53-1.562l-.502.14c-.003.03-.003.062-.003.096 0 1.09 1.364 1.98 3.053 1.994v-.67l-.017.002z"/></g></g>

<g id="medalla"><g id="medalla_2_"><path class="st22" d="M103.5 129v18.702l5.428-5.205 4.572 5.205V129h-10"/><circle class="st22" cx="108.805" cy="118.961" r="11.7"/></g><g id="logo_2_"><path class="st17" d="M113.728 115.427l-.007-.01c-.05-.054-4.068-3.58-4.068-3.58-.035-.037-.356-.263-.913-.263-.432 0-.93.173-.93.238v.01s-4.01 3.535-4.06 3.59l-.018.015h.01s-.183.498-.183.817c0 .666.61 1.27 1.275 1.27.412 0 .812-.453 1.028-.453h.025s1.782-3.34 2.978-3.34c1.193-.002 2.98 3.34 2.98 3.34h.01c.216 0 .578.453.988.453.667 0 1.206-.57 1.206-1.235 0-.318-.123-.85-.322-.85zM113.822 120.846c0-.573-.218-.99-.81-.99-.668 0-1.21.537-1.21 1.205 0 1.735-.104 3.257-2.895 3.257-2.835 0-2.98-1.71-2.98-3.256 0-.666-.477-1.205-1.143-1.205-.647 0-.847.51-.827 1.148.03.978.6 2.536 1.148 3.896.418 1.027 1.99.916 3.795.916 1.696 0 3.238.014 3.677-.917.64-1.352 1.245-2.71 1.245-4.054z"/></g></g></svg>