<svg id="dialogo" xmlns="http://www.w3.org/2000/svg" width="180.64" height="180.089" viewBox="0 0 180.64 180.089"><style><![CDATA[
	.st0{fill:#496C76;}
	.st1{fill:#49A2D0;}
	.st2{fill:#B3B3B3;}
	.st3{fill:#1B4754;}
	.st4{fill:#B6E0F2;}
	.st5{fill:#1C8BC4;}
	.st6{fill:#EBEBEB;}
	.st7{fill:#F2F2F2;}
	.st8{fill:#F9E78B;}
	.st9{opacity:0.1;fill:#FFFFFF;enable-background:new    ;}
	.st10{fill:#C5C3C4;}
	.st11{fill:#FADBAF;}
	.st12{fill:#FAECA2;}
	.st13{fill:#FBD2A5;}
	.st14{fill:#FBD3A7;}
	.st15{fill:#FBE2BF;}
	.st16{fill:#FFFFFF;}
	.st17{fill:none;}
	.st18{fill:#9A7758;}
	.st19{fill:#CBD5D8;}
	.st20{fill:#DDDDDD;}
]]>
	#nube-dialogo {
		animation: nubeDialogo 2s infinite;
		-webkit-animation: nubeDialogo 2s infinite;
		-moz-animation: nubeDialogo 2s infinite;
		-o-: nubeDialogo 4s infinite;
	}

	@keyframes nubeDialogo {
		0% {
			opacity: 0;
		}
		50% {
			opacity: 1;
		}
		100% {
			opacity: 0;
		}
	}

	@-webkit-keyframes nubeDialogo {
		0% {
			opacity: 0;
		}
		50% {
			opacity: 1;
		}
		100% {
			opacity: 0;
		}
	}

	@-moz-keyframes nubeDialogo {
		0% {
			opacity: 0;
		}
		50% {
			opacity: 1;
		}
		100% {
			opacity: 0;
		}
	}

	@-o-keyframes nubeDialogo {
		0% {
			opacity: 0;
		}
		50% {
			opacity: 1;
		}
		100% {
			opacity: 0;
		}
	}

	#nube-dos {
		animation: nubeDialogo 3s infinite;
		-webkit-animation: nubeDialogo 3s infinite;
		-moz-animation: nubeDialogo 3s infinite;
		-o-: nubeDialogo 3s infinite;
	}

	@keyframes nubeDos {
		100% {
			opacity: 0;
		}
		50% {
			opacity: 0;
		}
		0% {
			opacity: 1;
		}
	}

	@-webkit-keyframes nubeDos {
		100% {
			opacity: 1;
		}
		50% {
			opacity: 0;
		}
		0% {
			opacity: 0;
		}
	}

	@-moz-keyframes nubeDos {
		100% {
			opacity: 1;
		}
		50% {
			opacity: 0;
		}
		0% {
			opacity: 0;
		}
	}

	@-o-keyframes nubeDos {
		100% {
			opacity: 1;
		}
		50% {
			opacity: 0;
		}
		0% {
			opacity: 0;
		}
	}


</style>

<circle class="st4" cx="89" cy="91.089" r="81.604"/>
<path class="st9" d="M7.396 91.09c0 45.068 36.537 81.603 81.604 81.603V9.485C43.933 9.485 7.396 46.02 7.396 91.09z"/>
<g id="tipo-uno"><path class="st17" d="M53.822 111.737c-.183.022-.375.026-.566.034.19-.006.384-.01.566-.033z"/>

<path class="st17" d="M52.932 58.31c-19.957 0-36.137 16.322-36.137 36.457 0 12.178 5.942 22.932 15.036 29.555v-7.25c0-1.934 1.587-3.94 3.542-4.48l3.59-.997 2.262-.624.676-.185 6.474-1.794v-.006c0-.12.01-.24.035-.354v.354l-.007.002.006-.002v-6.917c-.027-.022-.052-.05-.08-.074-.05-.043-.1-.086-.147-.13-.035-.03-.07-.053-.104-.086-.01-.007-.015-.02-.023-.027-.292-.26-.58-.538-.87-.835-.025-.024-.05-.042-.073-.066-.02-.018-.035-.037-.053-.055-.006-.006-.012-.016-.02-.024-.514-.538-1.02-1.134-1.51-1.776-.01-.016-.023-.026-.033-.044-.5-.655-.975-1.36-1.426-2.112-.002-.006-.008-.017-.012-.023-.45-.755-.87-1.557-1.245-2.393-.003-.01-.007-.016-.01-.022-.378-.842-.71-1.72-.993-2.63l-.003-.016c-.324-.064-.61-.18-.867-.338-.646-.402-1.068-1.118-1.36-2.03-.055-.17-.122-.32-.165-.5-.342-1.39-.265-2.376.202-2.86.255-.267.638-.372 1.124-.326h.014c-.216-1.72-.25-3.64-.143-4.526.775-6.563 4.475-8.923 9.078-9.74.31-.058.622-.102.94-.137.557-.063 1.123-.096 1.7-.106.213-.005.426-.01.64-.01.69 0 1.362.037 2.018.11.322.036.638.082.95.138 4.656.818 8.305 3.19 9.18 9.74.115.898.083 2.826-.14 4.553 1.492-.23 2.026.943 1.478 3.167-.4 1.624-1.152 2.687-2.544 2.895-1.12 3.577-3.087 6.658-5.158 8.856-.02.026-.046.05-.07.073-.295.313-.59.583-.89.856-.023.027-.04.06-.065.084-.048.042-.095.076-.145.118-.043.04-.088.09-.134.128V108.836c.005.05.005.098.005.146l6.21 1.662.675.182 2.593.69 3.553.953c1.96.523 3.55 2.517 3.55 4.452v7.396c9.095-6.62 15.037-17.376 15.037-29.554 0-20.133-16.18-36.454-36.138-36.454zM57.45 108.983z"/>

<path class="st11" d="M34.72 126.218c1.297.765 2.625 1.477 4.017 2.076v-2.076H34.72zM66.927 128.384c1.463-.62 2.858-1.365 4.213-2.166h-4.213v2.166zM52.91 111.79h.022v.004c.11 0 .216-.018.326-.02.19-.01.382-.014.566-.036 2.064-.26 3.617-1.392 3.62-2.746-.007-.003-5.933-2.1-8.88-6.79-.016-.012-.03-.03-.045-.036-.038-.033-.073-.06-.11-.096v6.916l-.007.005-.028.01c.01 1.538 2.037 2.79 4.534 2.79zM57.45 108.983h-.006z"/>

<path class="st5" d="M52.932 111.794c.306 0 .603-.02.89-.057-.183.026-.375.03-.564.035-.11.004-.216.022-.326.022zM70.48 112.47l-3.554-.952-2.592-.69-.675-.18-6.21-1.664 1.078.292c.003.046.003.097.003.143 0 1.973-2.477 3.573-5.536 3.573-.022 0-.042-.004-.067-.004v18.228h-.098c.034 0 .064.007.097.007 4.966 0 9.692-1.014 13.998-2.84v-3.274h6.03c.37-.247.715-.526 1.073-.787v-7.396c.005-1.938-1.586-3.932-3.55-4.456z"/>

<path class="st13" d="M56.29 102.81c-.26.18-.504.323-.755.478-.163.097-.33.213-.49.296-.27.143-.522.234-.777.325-.123.048-.256.12-.377.155-.34.103-.662.152-.957.16v.01h-.063c-.264 0-.55-.05-.85-.12-.052-.014-.104-.02-.157-.037-.043-.01-.086-.026-.13-.036-.327-.104-.67-.243-1.026-.42-.062-.032-.123-.064-.186-.1-.22-.117-.45-.25-.68-.396-.07-.04-.14-.092-.21-.138-.353-.235-.707-.492-1.065-.787 2.946 4.69 8.872 6.788 8.88 6.79v-7.088c-.204.18-.407.318-.61.48-.183.14-.365.297-.545.427z"/>

<path class="st11" d="M48.374 108.995l.028-.01.006-.002v-.354c-.023.114-.035.233-.035.353v.012zM57.444 108.983h.003c0-.048-.002-.096-.005-.145l.002.145zM54.268 103.91c.254-.093.508-.185.777-.327-.273.14-.524.234-.777.328zM53.89 104.067c-.343.104-.662.15-.96.156.298-.006.617-.056.96-.156zM49.84 103.122c-.07-.044-.14-.09-.21-.138.07.047.14.094.21.138zM39.575 89.386c.292.913.714 1.63 1.36 2.03-.644-.403-1.065-1.12-1.36-2.03zM55.533 103.287c.25-.15.497-.292.756-.48-.26.184-.506.33-.757.48zM51.917 104.085c-.02-.005-.035 0-.055-.008.053.016.104.023.156.036l-.1-.028zM57.444 101.898c.046-.04.09-.09.135-.13-.25.224-.498.416-.746.612.203-.162.406-.298.61-.482zM63.27 88.91c1.057-4.107-.367-5.626-1.756-7.55-.565-.782-.708-2.387-1.164-3.234-1.574-2.923-5.267-1.992-7.325-1.02-.037.016-.02.023 0 .023-.02 0-.037-.008 0-.024l-.097-.038v23.95h1.495c.942-.028 2.398-2.058 2.727-2.3.477-.35 1.073-.016 1.246.696.166.68-.11 1.63-.61 2.15.298-.272.597-.545.89-.855l.072-.075c2.07-2.2 4.04-5.28 5.158-8.855 1.39-.21 2.143-1.27 2.54-2.895.55-2.224.018-3.396-1.474-3.166-.265 2.058-.803 3.827-1.7 3.19zM45.53 98.994c-.01-.015-.024-.027-.034-.044.01.017.023.03.033.044zM41.802 91.752l.007.017-.004-.018zM47.06 100.794c.018.018.033.037.053.054.023.024.048.042.073.066l-.146-.143c.007.008.013.018.02.024zM44.07 96.838c-.003-.007-.01-.016-.013-.024l.013.024zM42.812 94.422c-.003-.01-.007-.017-.01-.022 0 .005.007.013.01.022zM48.33 101.992c.026.024.053.052.08.074.035.032.072.062.107.092-.062-.054-.125-.114-.188-.166zM40.736 85.7c-.484-.044-.866.06-1.123.325.254-.265.635-.37 1.123-.325z"/>

<path class="st10" d="M42.8 94.4c-.378-.842-.712-1.72-.99-2.632.278.913.613 1.79.99 2.63zM48.183 101.862l.146.13c-.03-.025-.058-.056-.084-.08l-.063-.05zM40.937 91.416c.256.158.543.273.865.338-.322-.066-.61-.18-.865-.338zM40.75 85.7h-.014.014zM47.187 100.914c.29.297.577.574.87.835-.02-.022-.036-.047-.054-.067-.275-.245-.547-.492-.816-.77zM39.613 86.025c-.468.486-.543 1.47-.202 2.86.044.183.11.332.165.5-.055-.168-.12-.318-.164-.5-.34-1.39-.265-2.373.203-2.86zM47.04 100.77c-.513-.538-1.02-1.134-1.51-1.776.49.643.995 1.238 1.51 1.777zM45.496 98.95c-.5-.655-.975-1.36-1.426-2.112.45.75.928 1.457 1.426 2.112zM44.057 96.813c-.45-.755-.87-1.556-1.245-2.392.376.84.795 1.64 1.245 2.393z"/>

<path class="st11" d="M48.564 102.198s0-.004-.003-.004c.157.128.31.226.462.342-.26-.195-.518-.396-.777-.624.028.024.055.055.083.08.063.052.126.112.188.166.02.013.032.028.048.04z"/>

<path class="st10" d="M48.564 102.198s0-.004-.003-.004c.157.128.31.226.462.342-.26-.195-.518-.396-.777-.624.028.024.055.055.083.08.063.052.126.112.188.166.02.013.032.028.048.04z"/>

<path class="st13" d="M51.48 103.935c-.242-.086-.48-.176-.736-.3-.01-.01-.023-.013-.037-.02.356.177.7.32 1.026.42-.08-.024-.17-.07-.252-.1z"/>

<path class="st10" d="M51.48 103.935c-.242-.086-.48-.176-.736-.3-.01-.01-.023-.013-.037-.02.356.177.7.32 1.026.42-.08-.024-.17-.07-.252-.1z"/>

<path class="st13" d="M52.87 104.234c-.265 0-.554-.05-.852-.12.3.07.587.12.85.12z"/>
<path class="st10" d="M52.87 104.234c-.265 0-.554-.05-.852-.12.3.07.587.12.85.12z"/>

<path class="st13" d="M49.548 102.925c-.173-.12-.347-.254-.525-.39-.154-.115-.307-.213-.46-.34 0 0 0 .003.002.003.36.295.713.55 1.064.786-.03-.018-.056-.043-.082-.06z"/>

<path class="st10" d="M49.548 102.925c-.173-.12-.347-.254-.525-.39-.154-.115-.307-.213-.46-.34 0 0 0 .003.002.003.36.295.713.55 1.064.786-.03-.018-.056-.043-.082-.06z"/>

<path class="st13" d="M52.932 104.224c-.02 0-.043.01-.063.01h.062v-.01z"/>
<path class="st10" d="M52.932 104.224c-.02 0-.043.01-.063.01h.062v-.01z"/>

<path class="st13" d="M50.52 103.52c-.082-.045-.173-.11-.258-.16-.14-.078-.277-.146-.422-.24.23.15.46.282.68.4z"/>

<path class="st10" d="M50.52 103.52c-.082-.045-.173-.11-.258-.16-.14-.078-.277-.146-.422-.24.23.15.46.282.68.4z"/>

<path class="st11" d="M47.372 99.533c.008-.037.02-.077.03-.117.18-.72.867-1.053 1.4-.71.383.24 1.85 2.286 2.764 2.312h1.365v-23.95c-2.755-1.2-4.838-1.085-6.258-.563-.696.42-1.212 1.003-1.474 1.79-.262.804-.498 2.462-1.018 3.155-1.317 1.762-2.735 3.618-1.757 7.466-.892.64-1.418-1.144-1.68-3.214h-.012c-.484-.044-.865.06-1.122.325-.466.485-.542 1.47-.203 2.858.047.183.112.334.166.5.295.91.715 1.63 1.362 2.03.255.158.542.272.865.336.003.006.003.012.007.017.28.912.612 1.79.99 2.63l.01.023c.38.837.798 1.637 1.247 2.392.004.006.013.017.016.024.448.75.927 1.457 1.422 2.112.01.017.023.03.035.044.49.643.996 1.238 1.513 1.777.046.05.097.095.143.142.27.277.542.524.814.77-.493-.517-.788-1.467-.622-2.15z"/>

<path class="st15" d="M47.372 99.533c.008-.037.02-.077.03-.117.18-.72.867-1.053 1.4-.71.383.24 1.85 2.286 2.764 2.312h1.365v-23.95c-2.755-1.2-4.838-1.085-6.258-.563-.696.42-1.212 1.003-1.474 1.79-.262.804-.498 2.462-1.018 3.155-1.317 1.762-2.735 3.618-1.757 7.466-.892.64-1.418-1.144-1.68-3.214h-.012c-.484-.044-.865.06-1.122.325-.466.485-.542 1.47-.203 2.858.047.183.112.334.166.5.295.91.715 1.63 1.362 2.03.255.158.542.272.865.336.003.006.003.012.007.017.28.912.612 1.79.99 2.63l.01.023c.38.837.798 1.637 1.247 2.392.004.006.013.017.016.024.448.75.927 1.457 1.422 2.112.01.017.023.03.035.044.49.643.996 1.238 1.513 1.777.046.05.097.095.143.142.27.277.542.524.814.77-.493-.517-.788-1.467-.622-2.15z"/>

<path class="st11" d="M52.87 104.234c-.297 0-.62-.06-.953-.15l.1.03c.3.07.588.12.852.12z"/>
<path class="st10" d="M52.87 104.234c-.297 0-.62-.06-.953-.15l.1.03c.3.07.588.12.852.12z"/>
<path class="st11" d="M52.932 104.224c-.02 0-.043.01-.063.01.02 0 .04-.01.062-.01z"/>
<path class="st10" d="M52.932 104.224c-.02 0-.043.01-.063.01.02 0 .04-.01.062-.01z"/>
<path class="st11" d="M49.84 103.122c.143.09.28.16.422.238-.236-.133-.47-.272-.712-.436.026.017.055.04.082.06.07.047.138.094.208.138z"/>
<path class="st10" d="M49.84 103.122c.143.09.28.16.422.238-.236-.133-.47-.272-.712-.436.026.017.055.04.082.06.07.047.138.094.208.138z"/>
<path class="st11" d="M50.744 103.636c.256.127.498.213.737.3-.242-.087-.482-.175-.736-.3z"/>
<path class="st10" d="M50.744 103.636c.256.127.498.213.737.3-.242-.087-.482-.175-.736-.3z"/>
<path class="st18" d="M42.427 88.914c-.98-3.847.44-5.704 1.757-7.465.518-.694.754-2.352 1.02-3.157.257-.785.777-1.366 1.47-1.788 1.42-.522 3.502-.637 6.26.563l.096.037c2.06-.972 5.75-1.903 7.327 1.02.455.848.598 2.452 1.162 3.233 1.387 1.925 2.812 3.444 1.756 7.55.896.638 1.437-1.13 1.7-3.19.223-1.727.254-3.653.14-4.553-.875-6.55-4.524-8.92-9.18-9.74-.31-.055-.628-.102-.95-.138-.656-.073-1.33-.11-2.018-.11-.214 0-.428.004-.64.01-.577.01-1.145.043-1.7.107-.318.035-.63.08-.94.136-4.604.818-8.303 3.178-9.077 9.74-.103.89-.072 2.807.144 4.527.254 2.075.783 3.858 1.673 3.217z"/>
<path class="st17" d="M53.025 77.13c-.02 0-.037-.007 0-.023"/>
<path class="st18" d="M49.026 102.536c.176.133.35.27.523.39.24.162.476.302.71.435.087.05.177.115.26.162l.186.1.037.022c.254.12.498.212.737.3.083.03.172.076.252.103.043.014.086.03.13.04.02.006.035.003.055.008.334.088.656.147.952.147.018 0 .04-.01.06-.01.298-.007.617-.057.96-.16.12-.036.25-.106.378-.156.252-.094.505-.186.777-.325.16-.082.325-.198.488-.294.25-.15.498-.295.756-.48.18-.127.36-.283.545-.427.248-.196.495-.39.745-.612.05-.04.096-.076.144-.12.025-.02.042-.056.064-.082.5-.52.776-1.47.608-2.15-.17-.71-.77-1.043-1.244-.695-.327.24-1.786 2.272-2.73 2.3h-2.855c-.913-.028-2.38-2.07-2.763-2.31-.535-.344-1.22-.01-1.4.71-.01.038-.023.076-.03.116-.167.682.128 1.63.627 2.15.02.02.037.043.054.066.01.007.015.02.023.03.037.032.07.05.106.085.02.017.042.032.063.047.26.216.518.417.78.612z"/>
<path class="st5" d="M34.714 126.21h4.026v.01h-4.026z"/>
<path class="st20" d="M34.714 126.21h4.026v.01h-4.026z"/>
<path class="st5" d="M66.927 126.218h4.213c.613-.362 1.23-.717 1.816-1.112h-6.03v1.112z"/>
<path class="st20" d="M66.927 126.218h4.213c.613-.362 1.23-.717 1.816-1.112h-6.03v1.112zM53.822 111.737c2.07-.263 3.625-1.396 3.625-2.754 0 1.36-1.555 2.492-3.625 2.754z"/>
<path class="st11" d="M57.45 108.983h-.005v.005c-.003 1.354-1.556 2.486-3.62 2.75 2.067-.263 3.623-1.396 3.625-2.755z"/>
<path class="st20" d="M57.45 108.983h-.005v.005c-.003 1.354-1.556 2.486-3.62 2.75 2.067-.263 3.623-1.396 3.625-2.755z"/>

<path class="st5" d="M53.822 111.737c-.287.034-.586.057-.89.057v1.194c.02 0 .042.004.067.004 3.058 0 5.535-1.6 5.535-3.577 0-.048-.003-.1-.003-.143l-1.08-.292c-.004 1.362-1.56 2.495-3.63 2.757z"/>
<path class="st20" d="M53.822 111.737c-.287.034-.586.057-.89.057v1.194c.02 0 .042.004.067.004 3.058 0 5.535-1.6 5.535-3.577 0-.048-.003-.1-.003-.143l-1.08-.292c-.004 1.362-1.56 2.495-3.63 2.757z"/>
<path class="st13" d="M57.444 108.983v.005z"/><path class="st20" d="M57.444 108.983v.005z"/>
<path class="st10" d="M52.91 111.794c-2.502 0-4.527-1.25-4.536-2.8.008 1.548 2.036 2.8 4.535 2.8zM35.372 112.594l3.59-.993 2.262-.625.674-.188 5.567-1.54.902-.25V109l.005-.002v-.005l-6.474 1.794-.674.185-2.262.622-3.59 1c-1.955.538-3.543 2.544-3.543 4.48v.006c0-1.938 1.587-3.944 3.542-4.486z"/><path class="st5" d="M52.904 111.797l.028-.003h-.023c-2.5 0-4.527-1.25-4.536-2.8h-.005c.008 1.548 2.037 2.803 4.534 2.803z"/><path class="st10" d="M52.904 111.797l.028-.003h-.023c-2.5 0-4.527-1.25-4.536-2.8h-.005c.008 1.548 2.037 2.803 4.534 2.803z"/><path class="st5" d="M52.932 112.988c-3.027-.022-5.47-1.61-5.47-3.57 0-.058 0-.112.003-.172l-5.567 1.538-.674.187-2.262.624-3.59.996c-1.955.538-3.543 2.545-3.543 4.485v7.24c.36.262.706.537 1.073.79h5.833V128.295c4.33 1.865 9.092 2.908 14.095 2.922h.1l.002-18.23z"/><path class="st1" d="M52.932 112.988c-3.027-.022-5.47-1.61-5.47-3.57 0-.058 0-.112.003-.172l-5.567 1.538-.674.187-2.262.624-3.59.996c-1.955.538-3.543 2.545-3.543 4.485v7.24c.36.262.706.537 1.073.79h5.833V128.295c4.33 1.865 9.092 2.908 14.095 2.922h.1l.002-18.23z"/><path class="st11" d="M48.372 108.995c.01 1.547 2.036 2.8 4.535 2.8h.02v-.006h-.02c-2.495 0-4.522-1.252-4.535-2.795v-.005.005z"/><path class="st10" d="M48.372 108.995c.01 1.547 2.036 2.8 4.535 2.8h.02v-.006h-.02c-2.495 0-4.522-1.252-4.535-2.795v-.005.005z"/><path class="st5" d="M38.737 125.105h-5.833c.584.395 1.2.747 1.807 1.105h4.025l.002-1.105z"/><path class="st20" d="M38.737 125.105h-5.833c.584.395 1.2.747 1.807 1.105h4.025l.002-1.105z"/><path class="st6" d="M38.737 125.105h-5.833c.584.395 1.2.747 1.807 1.105h4.025l.002-1.105z"/><path class="st20" d="M47.462 109.243l.902-.25z"/><path class="st10" d="M47.462 109.243l.902-.25z"/><path class="st5" d="M52.904 111.797c-2.497 0-4.525-1.254-4.535-2.8l-.9.25c-.008.056-.008.11-.008.17 0 1.958 2.444 3.55 5.47 3.57v-1.193c-.01 0-.02.003-.028.003z"/><path class="st20" d="M52.904 111.797c-2.497 0-4.525-1.254-4.535-2.8l-.9.25c-.008.056-.008.11-.008.17 0 1.958 2.444 3.55 5.47 3.57v-1.193c-.01 0-.02.003-.028.003z"/><path class="st6" d="M52.904 111.797c-2.497 0-4.525-1.254-4.535-2.8l-.9.25c-.008.056-.008.11-.008.17 0 1.958 2.444 3.55 5.47 3.57v-1.193c-.01 0-.02.003-.028.003z"/></g><g id="tipo-dos"><path class="st17" d="M113.988 87.444s.004 0 0 0c-.326-1.264-.45-2.36-.405-3.312-.044.952.08 2.05.405 3.312z"/><path class="st17" d="M125.205 58.328c-19.824 0-35.897 16.213-35.897 36.214 0 11.95 5.765 22.52 14.614 29.114v-7.17c0-1.95 1.6-3.976 3.568-4.52l3.627-1.003.413-.116 3.946-1.092 5.167-1.43v-7.075c.013.01.022.02.032.027.02.014.033.027.047.038l.137.112c-.13-.105-.264-.218-.396-.333.132.115.265.228.395.333.312.25.624.488.932.697l.043.03c.095.064.19.128.287.188.096.062.19.118.283.178.063.035.125.072.19.104.077.04.152.086.23.128.232.116.457.226.682.318.06.023.117.044.175.068.06.02.115.036.176.06.055.02.113.033.17.054.06.02.117.036.175.046.054.017.105.03.16.036.038.01.07.018.107.022.237.05.46.074.674.074.025 0 .038 0 .064-.005v-.003h-.064c-.214 0-.44-.024-.674-.07-.036-.006-.07-.012-.106-.02l-.16-.038c-.057-.016-.114-.03-.176-.05-.057-.02-.11-.035-.17-.053-.06-.02-.115-.035-.176-.06-.058-.02-.116-.04-.175-.067-.225-.093-.45-.195-.682-.317-.078-.04-.153-.085-.23-.125l-.19-.104c-.093-.056-.188-.116-.283-.176-.096-.062-.192-.123-.287-.188l-.043-.03c-.308-.213-.62-.444-.933-.7-.045-.034-.093-.072-.138-.11-.017-.014-.03-.028-.047-.038-.01-.01-.02-.02-.032-.028-.06-.05-.12-.104-.18-.156-.064-.055-.13-.114-.193-.174l-.196-.18c-.055-.047-.104-.104-.166-.155-.143-.132-.284-.27-.427-.418l-.193-.202c-.07-.07-.136-.14-.198-.21-.07-.074-.136-.147-.202-.22-.056-.07-.12-.137-.18-.206l-.213-.245c-.066-.078-.132-.155-.196-.235-.17-.208-.342-.42-.51-.637-.277-.36-.552-.743-.817-1.137-.062-.09-.12-.18-.18-.27-.06-.094-.117-.186-.178-.28-.116-.187-.237-.376-.347-.567-.05-.082-.1-.164-.147-.248-.062-.11-.13-.22-.19-.335-.07-.126-.14-.25-.206-.375-.194-.378-.393-.766-.577-1.16-.102-.213-.196-.423-.29-.642-.046-.105-.093-.215-.135-.323-.18-.44-.35-.884-.507-1.34-.08-.226-.153-.453-.227-.686-.306-.062-.58-.168-.82-.312-.15-.087-.286-.19-.412-.303-.03-.026-.058-.054-.084-.08-.11-.108-.21-.226-.306-.352-.07-.1-.14-.198-.2-.307-.037-.06-.07-.12-.104-.182-.126-.24-.235-.507-.328-.792-.06-.178-.107-.367-.162-.565-.033-.144-.064-.284-.093-.42l-.036-.202c-.016-.083-.028-.163-.037-.243-.02-.133-.03-.26-.035-.38-.003-.06-.01-.118-.012-.174-.006-.278.016-.523.062-.74.027-.114.057-.22.1-.315l.03-.07c.01-.02.02-.043.035-.067.024-.04.045-.08.072-.12.026-.038.05-.075.082-.107.017-.015.03-.035.046-.05.01-.007.02-.02.03-.03.01-.005.017-.014.026-.02.016-.016.035-.03.05-.043.052-.04.108-.08.17-.11.042-.02.083-.037.125-.054.022-.008.04-.016.066-.022.067-.02.14-.034.214-.046.027 0 .047-.005.076-.01-.062-.243-.116-.487-.175-.74-.2-.897-.387-1.786-.52-2.65-1.284-8.076 1.648-11.032 13.225-11.05h.277c11.58.02 14.51 2.975 13.228 11.05-.13.866-.318 1.753-.522 2.65-.056.256-.114.506-.176.75 1.105.103 1.453 1.262.967 3.226-.4 1.64-1.16 2.71-2.564 2.92-1.134 3.608-3.118 6.717-5.203 8.936-.438.463-.88.888-1.313 1.273h-.003v.02l.004-.004v7.204l.003.024 3.448.924 5.212 1.393.896.24 3.582.96c1.98.527 3.584 2.54 3.584 4.49v7.324c8.847-6.596 14.61-17.163 14.61-29.115-.002-20.01-16.075-36.222-35.9-36.222z"/><path class="st3" d="M129.763 108.325c0 .003-.003.005-.003.006v.01h.003v.006l-.003-.002c-.034 1.57-4.02 6.91-4.555 7.067v5.402c1.822-.1 8.006-11.564 8.006-11.564l-3.447-.923zM142.907 111.842l-3.586-.96-.892-.238.407.11v17.278c2.744-1.138 5.302-2.63 7.65-4.378v-7.327c0-1.945-1.6-3.954-3.578-4.485z"/><path class="st11" d="M129.763 108.325zM125.183 115.415c.008 0 .016-.007.022-.007v.003c.536-.157 4.523-5.496 4.555-7.07-.032-.01-6.16-2.187-9.077-7.046.014.012.028.025.043.036.042.037.093.076.136.112.316.256.623.486.934.697.016.01.03.024.04.03.1.065.19.13.287.187.1.062.19.12.287.177.06.034.123.072.186.107.078.044.157.09.233.126.232.117.456.228.68.318l.174.07c.056.02.113.037.175.062.055.017.11.035.17.05.06.023.117.036.175.05.054.015.105.027.16.037.038.01.07.015.105.022.238.046.462.068.677.068h.064c1.217-.027 2.862-.88 4.544-2.35v-.022c-1.685 1.477-3.333 2.328-4.55 2.355v.005h-.062c-.215 0-.442-.025-.677-.074-.034-.005-.066-.015-.104-.024-.052-.01-.102-.024-.158-.034-.058-.013-.116-.033-.175-.05l-.172-.055c-.058-.02-.114-.038-.175-.062-.057-.02-.116-.045-.175-.067-.225-.09-.452-.195-.682-.315l-.23-.127c-.064-.035-.127-.07-.19-.107-.09-.053-.184-.11-.282-.173-.1-.06-.188-.125-.287-.19-.015-.008-.033-.018-.04-.028-.31-.21-.62-.443-.936-.697-.04-.036-.09-.076-.137-.115-.016-.01-.03-.024-.043-.035v-.002c-.012-.01-.02-.017-.036-.026v7.072c.013 1.566 4.286 7.106 4.543 7.095zM129.76 108.325v.006l.003-.005z"/><path class="st14" d="M125.147 103.45c-.217 0-.442-.022-.68-.067l-.102-.024c-.05-.014-.104-.026-.16-.036-.058-.017-.115-.03-.177-.05-.058-.02-.112-.037-.17-.052-.06-.024-.116-.04-.174-.064-.06-.023-.115-.043-.177-.07-.224-.087-.45-.19-.68-.314-.076-.04-.155-.083-.232-.126l-.187-.106c-.096-.056-.19-.113-.287-.175-.095-.06-.188-.122-.285-.188-.014-.006-.03-.016-.042-.032-.31-.21-.617-.44-.932-.697l-.137-.11c-.017-.01-.03-.026-.043-.036 2.92 4.857 9.046 7.037 9.077 7.047l.003.004v-.007h-.003v-.016h-.003v-.145c.003.035.003.08.003.118V101.1s0 .002-.003.002c-1.684 1.473-3.33 2.323-4.545 2.352-.024-.003-.043-.003-.063-.003z"/><path class="st11" d="M129.757 108.325h.006c0-.01-.003-.018-.003-.024 0-.04 0-.082-.003-.12v.145zM120.723 101.316c-.017-.01-.03-.024-.047-.034.017.012.03.025.047.034zM111.514 85.474c.01-.024.02-.046.034-.07.01-.02.02-.043.036-.065.022-.042.043-.084.072-.124.026-.04.05-.074.082-.107.016-.02.03-.036.044-.05.013-.008.022-.02.032-.03.01-.007.016-.015.024-.022.015-.015.035-.03.052-.042.053-.042.104-.077.17-.11.042-.022.08-.038.123-.054.023-.008.043-.018.068-.024.068-.02.14-.036.216-.047.024 0 .046-.005.076-.008v-.004c-.03.002-.052.007-.076.01-.075.01-.147.026-.215.047-.024.006-.044.015-.067.02l-.123.056c-.062.033-.117.072-.17.112-.02.013-.037.027-.052.042-.01.006-.015.016-.024.02l-.032.032c-.018.017-.032.034-.044.05-.033.034-.056.07-.082.106-.03.04-.05.082-.072.12-.017.022-.026.047-.036.068-.015.024-.024.046-.034.07-.037.096-.073.2-.097.313-.048.217-.067.463-.062.74v.002c-.006-.275.014-.52.062-.738.023-.112.056-.217.097-.313zM129.76 101.083c.437-.387.877-.81 1.313-1.274 2.085-2.218 4.07-5.325 5.2-8.936 1.402-.21 2.164-1.28 2.567-2.92.484-1.966.138-3.125-.967-3.227-.03.127-.063.248-.097.373-.022.002-.705 2.813-1.36 2.352.657-2.532.492-4.397-.187-5.762-.19-.377-.423-.713-.684-1.02-1.303-1.42-6.276-2.436-6.276-2.436-.02.545 1.122 1.225 1.122 1.225-1.54.12-3.8-1.13-3.8-1.13.236.877 1.47 1.328 1.47 1.328-1.028.123-1.98.09-2.857-.062v23.839c1.22-.027 2.865-.878 4.552-2.353h.003z"/><path class="st17" d="M120.465 101.1c.132.115.265.227.39.333M120.86 101.433c.312.254.624.487.932.697M120.86 101.433c.312.254.624.487.932.697M122.826 102.757c.232.12.457.226.682.315M122.826 102.757c.232.12.457.226.682.315"/>

<path class="st11" d="M125.205 103.438v-.004c-.022.004-.04.004-.063.004-.215 0-.44-.03-.678-.073.24.047.463.073.678.073h.063z"/>

<path class="st10" d="M125.205 103.438v-.004c-.022.004-.04.004-.063.004-.215 0-.44-.03-.678-.073.24.047.463.073.678.073h.063z"/>

<path class="st8" d="M114.077 110.146l1.4-.39-3.947 1.092 1.865-.513zM138.836 110.753l-.412-.105-5.213-1.395s-6.183 11.463-8.005 11.563v9.943h-.02.02c4.828 0 9.425-.974 13.63-2.72v-4.646-12.64z"/><path class="st19" d="M125.183 115.415l.022-.004v-.002z"/>

<path class="st3" d="M125.164 120.822c.013 0 .033-.01.04-.014v-5.397c-.006 0-.014.005-.02.005-.258.01-4.534-5.53-4.54-7.09l-5.17 1.43 1.755-.483s6.17 11.487 7.934 11.55z"/>

<path class="st0" d="M125.164 120.822c.013 0 .033-.01.04-.014v-5.397c-.006 0-.014.005-.02.005-.258.01-4.534-5.53-4.54-7.09l-5.17 1.43 1.755-.483s6.17 11.487 7.934 11.55z"/><path class="st3" d="M111.117 110.964l-3.627 1.003c-1.968.544-3.568 2.57-3.568 4.523v7.167c2.344 1.744 4.882 3.23 7.608 4.363v-17.173l-.413.117z"/>

<path class="st0" d="M111.117 110.964l-3.627 1.003c-1.968.544-3.568 2.57-3.568 4.523v7.167c2.344 1.744 4.882 3.23 7.608 4.363v-17.173l-.413.117z"/>

	<path class="st8" d="M125.205 120.813c-.012 0-.032.014-.04.014-1.764-.067-7.934-11.555-7.934-11.555l-1.754.484-1.397.39-.684.19-1.863.512v17.172c4.21 1.75 8.82 2.73 13.657 2.733h.016v-9.94z"/><path class="st12" d="M125.205 120.813c-.012 0-.032.014-.04.014-1.764-.067-7.934-11.555-7.934-11.555l-1.754.484-1.397.39-.684.19-1.863.512v17.172c4.21 1.75 8.82 2.73 13.657 2.733h.016v-9.94z"/>

<path class="st18" d="M112.537 84.722c.032.125.063.25.092.373.022.002.706 2.81 1.362 2.352v-.003c-.327-1.264-.453-2.36-.405-3.312.043-.955.253-1.762.597-2.446.275-.556.64-1.027 1.065-1.426 1.27-1.024 1.978-2.37 2.335-3.684.135-.5.457-1.068.87-1.472 1.343 1.808 3.554 3.93 6.755 4.483v.005c.878.152 1.83.185 2.857.062 0 0-1.233-.45-1.472-1.33 0 0 2.26 1.25 3.8 1.13 0 0-1.142-.68-1.118-1.224 0 0 4.97 1.017 6.274 2.437.26.306.494.642.682 1.02.68 1.365.844 3.23.187 5.76.653.462 1.34-2.35 1.36-2.35.035-.126.065-.247.097-.375.06-.245.118-.493.177-.748.205-.898.388-1.788.522-2.65 1.282-8.076-1.647-11.033-13.23-11.052h-.275c-11.577.02-14.51 2.976-13.226 11.052.13.865.32 1.752.52 2.65.06.25.115.5.177.74-.004.006-.004.008-.003.008z"/>

<path class="st10" d="M125.142 103.428c-.215 0-.44-.022-.678-.07-.033-.004-.066-.015-.103-.02-.052-.012-.103-.024-.157-.04-.06-.014-.117-.03-.176-.047-.056-.02-.114-.035-.17-.052-.06-.02-.115-.035-.175-.062-.058-.02-.116-.04-.178-.07-.222-.088-.45-.19-.68-.313-.078-.04-.155-.086-.23-.128-.065-.034-.13-.07-.19-.106-.093-.054-.187-.11-.284-.176-.098-.06-.19-.126-.287-.188-.015-.01-.03-.02-.04-.03-.31-.21-.62-.447-.936-.698-.042-.036-.09-.073-.137-.113-.016-.012-.03-.026-.045-.036l-.033-.026c-.06-.053-.118-.106-.178-.157-.065-.054-.132-.114-.196-.175l-.196-.182c-.054-.044-.105-.104-.164-.152-.146-.136-.287-.273-.43-.42-.066-.067-.127-.134-.192-.203-.07-.07-.136-.142-.2-.21-.067-.074-.133-.147-.2-.218-.058-.068-.12-.137-.18-.205-.072-.08-.145-.164-.214-.25-.066-.076-.13-.15-.194-.23-.17-.208-.34-.418-.51-.637-.278-.364-.553-.746-.816-1.14-.062-.088-.12-.18-.183-.27-.06-.093-.114-.187-.177-.28-.115-.184-.235-.373-.346-.563-.05-.083-.102-.166-.147-.25-.064-.11-.13-.222-.192-.337-.07-.123-.14-.247-.205-.372-.197-.38-.392-.766-.577-1.162-.1-.21-.197-.423-.29-.64-.048-.105-.094-.216-.136-.322-.177-.44-.35-.884-.505-1.34-.08-.226-.153-.456-.227-.686v-.004c-.308-.06-.58-.164-.823-.31-.147-.086-.284-.188-.41-.302-.032-.024-.058-.053-.084-.08-.107-.106-.21-.226-.308-.353-.07-.097-.136-.198-.197-.305-.036-.06-.07-.122-.104-.185-.123-.237-.233-.504-.325-.79-.06-.18-.11-.37-.163-.566-.034-.146-.063-.285-.093-.422l-.04-.2c-.01-.084-.023-.164-.032-.245-.02-.132-.03-.26-.035-.382l-.01-.173v.002l.01.172c.01.12.02.248.035.38.012.08.023.16.033.244.013.066.025.132.04.2.028.138.058.278.092.423.05.2.104.387.163.566.095.286.202.55.326.79.035.063.068.123.105.182.062.108.128.21.197.308.097.127.198.246.31.352.025.026.05.053.083.08.126.115.263.216.41.303.246.144.52.25.823.31v.004c.073.23.146.46.227.686.155.456.322.9.505 1.336.042.11.088.218.137.325.092.217.188.43.29.64.18.394.38.78.576 1.16.065.128.135.25.205.375.062.113.128.227.192.337.046.083.097.165.147.247.11.192.23.382.346.566.063.093.117.187.176.278.06.09.12.182.182.272.264.393.538.775.817 1.137.167.22.337.43.508.64l.194.23c.07.085.142.168.215.247l.18.207c.066.07.132.144.2.217.063.07.13.142.2.21.064.07.125.137.19.204.144.146.285.285.43.42.057.05.107.105.165.155l.196.18c.064.054.13.113.196.172l.178.16c.014.01.02.016.033.024.02.013.032.026.045.04l.137.108c.314.254.626.488.935.7.013.01.03.02.04.03.098.064.19.126.288.187.098.06.19.115.283.175.063.037.126.07.19.106.076.042.153.086.23.126.234.117.46.224.68.316.06.025.118.047.18.067.055.023.11.04.174.062.056.02.11.035.17.053.06.022.116.035.176.052.054.015.104.025.158.034.037.01.07.02.104.024.24.043.463.068.678.068h.063-.063zM113.992 87.444c-.33-1.264-.455-2.36-.41-3.312-.042.952.08 2.05.41 3.312z"/>

<path class="st11" d="M111.4 87.082l.037.243.035.202c.028.137.058.28.095.422.05.197.102.385.16.564.097.285.202.552.327.79.032.063.068.126.103.185.063.107.133.21.202.305.09.13.192.246.302.35.03.03.057.057.088.083.124.116.26.216.41.302.245.144.52.25.822.313.072.234.145.46.225.69.158.452.326.897.507 1.335.044.108.09.218.138.324.093.217.186.43.288.642.182.394.383.78.577 1.158.066.13.136.25.205.375.063.114.13.227.193.34l.146.245c.11.192.232.383.35.566.058.095.116.188.176.28s.12.18.18.27c.266.395.54.774.817 1.137.167.22.34.433.508.637.067.08.133.16.2.235.068.084.14.166.21.246.063.07.125.138.182.205.065.072.132.146.2.218.063.07.13.142.198.212.063.068.13.135.195.202.142.146.283.284.425.42.057.05.11.103.167.152.064.062.13.122.193.18.066.058.132.117.198.178.06.05.118.102.178.154.013.01.024.017.033.028.02.013.032.027.045.034.047.04.092.08.138.114.31.252.625.488.932.7.013.01.03.02.043.027.096.063.19.13.287.19l.283.172c.063.037.125.075.188.108.08.043.156.087.233.125.23.118.456.228.68.316.06.025.12.047.176.07.06.022.115.04.174.06.057.02.116.034.174.054.06.02.117.034.177.047.054.018.105.032.16.04.035.006.07.016.104.023.24.045.462.07.677.07h.064v-23.83c-3.204-.555-5.413-2.676-6.753-4.486-.414.404-.736.97-.87 1.47-.357 1.315-1.067 2.662-2.337 3.686-.426.4-.79.87-1.067 1.425-.338.682-.55 1.488-.598 2.44-.043.953.08 2.05.408 3.313v.007c-.655.46-1.34-2.35-1.364-2.352-.03-.125-.06-.246-.093-.374v-.002c-.028.003-.053.005-.078.01-.075.01-.148.027-.215.046-.023.007-.044.015-.068.024-.043.016-.084.033-.124.053-.06.035-.115.07-.17.112-.02.013-.038.027-.05.042-.01.007-.017.015-.026.02l-.032.032c-.02.015-.034.034-.045.05-.03.034-.056.07-.084.106-.027.037-.05.08-.072.123-.015.02-.023.043-.036.066l-.03.07c-.042.096-.073.2-.1.316-.046.216-.065.462-.06.738 0 .056.005.113.01.172.02.126.03.252.048.386z"/>

<path class="st15" d="M111.4 87.082l.037.243.035.202c.028.137.058.28.095.422.05.197.102.385.16.564.097.285.202.552.327.79.032.063.068.126.103.185.063.107.133.21.202.305.09.13.192.246.302.35.03.03.057.057.088.083.124.116.26.216.41.302.245.144.52.25.822.313.072.234.145.46.225.69.158.452.326.897.507 1.335.044.108.09.218.138.324.093.217.186.43.288.642.182.394.383.78.577 1.158.066.13.136.25.205.375.063.114.13.227.193.34l.146.245c.11.192.232.383.35.566.058.095.116.188.176.28s.12.18.18.27c.266.395.54.774.817 1.137.167.22.34.433.508.637.067.08.133.16.2.235.068.084.14.166.21.246.063.07.125.138.182.205.065.072.132.146.2.218.063.07.13.142.198.212.063.068.13.135.195.202.142.146.283.284.425.42.057.05.11.103.167.152.064.062.13.122.193.18.066.058.132.117.198.178.06.05.118.102.178.154.013.01.024.017.033.028.02.013.032.027.045.034.047.04.092.08.138.114.31.252.625.488.932.7.013.01.03.02.043.027.096.063.19.13.287.19l.283.172c.063.037.125.075.188.108.08.043.156.087.233.125.23.118.456.228.68.316.06.025.12.047.176.07.06.022.115.04.174.06.057.02.116.034.174.054.06.02.117.034.177.047.054.018.105.032.16.04.035.006.07.016.104.023.24.045.462.07.677.07h.064v-23.83c-3.204-.555-5.413-2.676-6.753-4.486-.414.404-.736.97-.87 1.47-.357 1.315-1.067 2.662-2.337 3.686-.426.4-.79.87-1.067 1.425-.338.682-.55 1.488-.598 2.44-.043.953.08 2.05.408 3.313v.007c-.655.46-1.34-2.35-1.364-2.352-.03-.125-.06-.246-.093-.374v-.002c-.028.003-.053.005-.078.01-.075.01-.148.027-.215.046-.023.007-.044.015-.068.024-.043.016-.084.033-.124.053-.06.035-.115.07-.17.112-.02.013-.038.027-.05.042-.01.007-.017.015-.026.02l-.032.032c-.02.015-.034.034-.045.05-.03.034-.056.07-.084.106-.027.037-.05.08-.072.123-.015.02-.023.043-.036.066l-.03.07c-.042.096-.073.2-.1.316-.046.216-.065.462-.06.738 0 .056.005.113.01.172.02.126.03.252.048.386z"/>

<path class="st18" d="M112.63 85.095c-.03-.123-.06-.247-.093-.373v.003c.032.127.063.25.092.374.022 0 .71 2.812 1.362 2.35v-.004c-.656.46-1.34-2.347-1.363-2.35z"/>

<path class="st10" d="M112.63 85.095c-.03-.123-.06-.247-.093-.373v.003c.032.127.063.25.092.374.022 0 .71 2.812 1.362 2.35v-.004c-.656.46-1.34-2.347-1.363-2.35z"/>

<path class="st18" d="M118.45 75.107c-.413.402-.733.97-.868 1.47-.356 1.315-1.066 2.66-2.336 3.685-.426.4-.792.872-1.065 1.426-.343.682-.554 1.492-.598 2.446.044-.953.255-1.76.6-2.44.272-.557.64-1.026 1.064-1.426 1.27-1.024 1.98-2.37 2.336-3.685.135-.5.455-1.068.87-1.472 1.34 1.81 3.55 3.932 6.753 4.486v-.005c-3.202-.552-5.413-2.676-6.754-4.483z"/>

<path class="st10" d="M118.45 75.107c-.413.402-.733.97-.868 1.47-.356 1.315-1.066 2.66-2.336 3.685-.426.4-.792.872-1.065 1.426-.343.682-.554 1.492-.598 2.446.044-.953.255-1.76.6-2.44.272-.557.64-1.026 1.064-1.426 1.27-1.024 1.98-2.37 2.336-3.685.135-.5.455-1.068.87-1.472 1.34 1.81 3.55 3.932 6.753 4.486v-.005c-3.202-.552-5.413-2.676-6.754-4.483z"/></g>

<path id="nube-dos" class="st7" d="M84.316 40.403h28.205s4.68-.004 4.68 5.198v15.89c0 4.777-4.13 4.563-4.13 4.563l-4.073.018s-1.74 7.123-2.32 7.123c-.613 0-4.875-7.102-4.875-7.102H84.316s-4.55.08-4.55-4.698v-16.76c0-.386-.062-4.23 4.55-4.23z"/>

<g id="nube-dialogo"><path id="nube-uno" class="st16" d="M96.246 28.795H60.032s-6.01-.004-6.01 6.675v20.4c0 6.134 5.306 5.86 5.306 5.86l5.23.022s2.233 9.144 2.978 9.144c.787 0 6.26-9.12 6.26-9.12h22.45s5.844.102 5.844-6.033v-21.52c0-.494.08-5.428-5.844-5.428z"/><path class="st2" d="M60 44.09h12v2H60zM75 44.09h3v2h-3zM81 44.09h4v2h-4zM88 44.09h8v2h-8zM79 38.09h17v2H79zM70 38.09h6v2h-6zM60 38.09h7v2h-7zM76 50.09h4v2h-4zM60 50.09h12v2H60zM83 50.09h10v2H83z"/></g></svg>